# xmcd CD database file
#
# Track frame offsets:
#	150
#	14004
#	25681
#	40928
#	55950
#	71628
#	85425
#	99661
#	115884
#	129730
#	144317
#	156110
#	170487
#	186351
#	205646
#	223499
#	244053
#	257705
#	271839
#
# Disc length: 3867 seconds
#
# Revision: 0
# Processed by: cddbd v1.4PL0 Copyright (c) Steve Scherf et al.
# Submitted via: CDex 1.50beta10
#
DISCID=1c0f1913
DTITLE=Linkin Park - Hybrid Theory
DYEAR=2000
DGENRE=New Age
TTITLE0=Papercut
TTITLE1=One Step Closer
TTITLE2=With You
TTITLE3=Points of Authority
TTITLE4=Crawling
TTITLE5=Runaway
TTITLE6=By Myself
TTITLE7=In the End
TTITLE8=A Place for My Head
TTITLE9=Forgotten
TTITLE10=Cure for the Itch
TTITLE11=Pushing Me Away
TTITLE12=High Voltage
TTITLE13=My December
TTITLE14=Step Up
TTITLE15=And One
TTITLE16=Carousel
TTITLE17=A Place for My Head (Remix)
TTITLE18=Part of Me
EXTD=YEAR: 2000
EXTT0=
EXTT1=
EXTT2=
EXTT3=
EXTT4=
EXTT5=
EXTT6=
EXTT7=
EXTT8=
EXTT9=
EXTT10=
EXTT11=
EXTT12=
EXTT13=
EXTT14=
EXTT15=
EXTT16=
EXTT17=
EXTT18=
PLAYORDER=
